<?xml version="1.0" encoding="UTF-8"?>
<svg width="16px" height="13px" viewBox="0 0 16 13" version="1.1" xmlns="http://www.w3.org/2000/svg" xmlns:xlink="http://www.w3.org/1999/xlink">
    <title>形状</title>
    <g id="后台" stroke="none" stroke-width="1" fill="none" fill-rule="evenodd">
        <g id="新增备份" transform="translate(-690.000000, -358.000000)" fill="#FFCB2F" fill-rule="nonzero">
            <g id="弹框" transform="translate(610.000000, 171.000000)">
                <g id="文件夹" transform="translate(80.000000, 186.000000)">
                    <path d="M1.268125,6.43864583 L0,11.0883333 L0,2.16666667 C0.000516646032,1.70664355 0.373310209,1.33384998 0.833333328,1.3333302 L4.79291667,1.3333302 C5.01405232,1.33272565 5.22624093,1.42060931 5.3821875,1.57739583 L7.08927083,3.28447917 C7.12041929,3.31587696 7.16285632,3.33347463 7.20708333,3.3333302 L13.1666667,3.3333302 C13.6266898,3.33384998 13.9994834,3.70664355 14,4.16666667 L14,5.3333302 L2.71520833,5.3333302 C2.03917149,5.33443285 1.4470422,5.78671359 1.268125,6.43864583 Z M15.674375,6.3275 C15.517349,6.12031503 15.2720483,5.99901503 15.0120833,5.99999405 L2.71520833,5.99999405 C2.33949239,6.0007125 2.01049699,6.25221196 1.91125,6.61458333 L0.183958328,12.9479167 C0.115811611,13.1984193 0.168301837,13.4663714 0.325928582,13.6726463 C0.483555327,13.8789213 0.728310151,13.999994 0.987916672,13.999994 L13.2847917,13.999994 C13.6605076,13.9992875 13.989503,13.747788 14.08875,13.3854167 L15.8160417,7.05208333 C15.8851418,6.80169183 15.8326452,6.53338419 15.6742708,6.3275 L15.674375,6.3275 Z" id="形状"></path>
                </g>
            </g>
        </g>
    </g>
</svg>